<svg width="375" height="161" viewBox="0 0 375 161" fill="none" xmlns="http://www.w3.org/2000/svg">
<path d="M115.614 77.0292L119.559 76.7144L121.539 76.9243L124.779 76.8192L127.704 76.3092L128.003 73.7896L127.268 71.4045L125.709 67.5349L122.889 62.1201L121.434 58.2801L119.349 54.5003L115.389 45.036L114.339 43.461L113.319 41.4811L112.689 39.1861L111.744 37.6414L111.129 35.9615L108.924 32.1215L108.204 29.9317L101.32 15.4276L100.705 13.3575L99.5651 11.4828L98.92 9.59273L96.9401 5.96293L95.1851 4.07302L91.7503 3.03809L88.4057 4.17802L86.5306 5.96293L85.5857 7.71783L84.8508 9.80273L83.9059 11.2725L79.7661 20.8423L78.611 22.417L78.086 24.502L76.9311 26.4969L76.301 28.3417L65.6968 50.6606L65.0517 52.9556L64.0167 54.5003L63.2668 56.6003L61.422 59.9303L59.832 64.1L58.6922 65.5699L58.1821 67.4297L56.0971 71.5995L55.4673 73.6995L55.9923 76.3092L58.077 76.9243L62.127 76.7144L64.2117 76.9243L70.0615 76.7144L72.4613 75.9795L74.4412 74.1194L76.301 70.6696L78.2809 68.7047L80.4711 67.5349L82.451 67.8649L86.8307 67.4297L88.7204 67.7598L98.92 67.6699L100.81 67.8649L103.09 67.5349L105.385 68.7047L107.365 70.3545L108.309 72.3497L108.924 74.2245L111.009 75.7845L113.424 76.8192L115.614 77.0292ZM91.9453 51.0655L89.8606 50.6606L87.4755 50.8706L85.7956 50.1356L85.6908 48.1707L90.5955 36.8914L91.7503 35.9615L93.1902 36.8013L98.1099 48.2758L97.675 50.1356L96.115 50.9757L91.9453 51.0655ZM132.473 73.0846L133.208 75.7845L135.203 76.8192L137.288 77.0292L141.668 76.7144L145.703 76.9243L149.677 76.7144L151.657 77.0292L153.952 76.8192L174.591 76.9243L176.571 75.8743L177.726 72.6495L177.621 64.2049L176.676 61.1001L174.786 59.8252L172.611 60.0501L170.616 60.455L168.427 60.1552L164.152 60.26L162.097 59.8252L160.207 60.1552L156.142 59.9303L153.952 60.1552L151.867 59.3152L151.027 57.2304L151.132 21.892L150.922 19.3874L151.132 15.2173L150.817 9.29276L150.922 7.31286L149.887 5.01796L147.802 3.77303H143.753L141.668 4.17802L137.483 3.77303L135.503 4.07302L133.313 4.91299L132.368 7.20786V21.7872L132.173 23.7671L132.368 25.8518L132.068 29.7218L132.173 32.0167L132.368 33.9966L132.473 73.0846ZM211.684 77.1343L226.594 76.9243L228.783 75.9795L229.923 73.7896V63.2899L228.783 61.2052L226.594 60.26L224.208 60.455L222.214 60.1552L216.904 60.0501L213.469 60.455L211.384 60.26L209.09 60.3652L207.11 60.0501L204.815 60.26L202.625 59.2103L201.785 57.3353V50.7657L202.73 48.5759L204.605 47.4357L207.739 47.3309L211.069 47.6307L215.014 47.4357L219.289 47.5409L221.374 47.3309L223.789 47.4357L225.859 46.596L226.594 44.511L226.893 35.1365L225.859 32.2117L223.459 30.8616H217.324L215.149 31.0715L210.769 30.7717L204.71 30.9667L202.52 30.0218L201.68 26.797V23.5721L202.625 21.5772L204.919 20.7372L206.899 20.8423L208.879 20.4371L223.789 20.6321L225.754 20.5422L227.943 19.2972L228.978 17.4075L228.888 15.3225L228.978 13.2374L228.783 6.99786L227.839 5.01796L225.754 4.17802H223.564L221.704 3.77303L213.259 3.86302L210.964 4.07302L208.879 3.86302L207.11 3.96802L205.01 3.77303L196.46 3.96802L194.375 3.66803L192.425 4.07302L190.535 3.86302L188.45 4.07302L186.365 3.96802L184.176 4.80799L183.036 6.99786L183.231 10.9428L182.931 15.2173L183.231 17.5123L183.036 27.7418L183.336 29.9317L183.126 31.9116L183.036 40.4311L183.336 42.3211L183.231 59.2103L183.036 61.2052L183.336 63.2899L183.036 70.4596L183.231 72.7546L184.071 75.5743L187.205 76.9243L194.705 77.0292L197 76.8192L198.89 76.9243L203.165 76.6243L205.114 77.0292L207.53 77.1343L209.599 76.9243L211.684 77.1343Z" stroke="white" stroke-width="4.55997"/>
<path d="M60.6512 160.2L65.7661 159.99L67.6409 160.095L70.041 159.885L72.2159 159.045L73.1608 156.855L73.0556 154.785L73.1608 152.491L72.9508 148.636L73.1608 146.656L73.0556 144.256L74.0008 142.381L76.3856 141.226L78.6806 141.016L80.8704 141.436L91.6097 140.596L101.509 136.636L103.069 135.391L104.539 133.727L105.889 132.376L107.239 130.802L109.429 127.472L111.199 123.407L111.514 121.112L112.144 119.447L112.354 110.898L111.934 109.128L111.619 106.833L110.374 102.978L108.394 99.4381L105.889 95.9883L101.194 91.9237L97.7596 89.6437L93.5896 88.3838L91.8199 87.6638H89.7349L87.6499 86.9289L84.5152 86.8237L81.1852 86.9289L78.8905 87.2439L72.5306 87.1388L70.4459 86.8237L63.9812 87.2439L61.7012 87.1388L59.8264 86.8237L57.6366 87.2439L55.4465 88.3838L54.5016 90.0486L54.6067 102.663L54.1865 106.833L54.3968 108.813L54.2916 135.811L54.5016 137.791L54.3968 157.065L55.5516 159.045L58.7764 160.095L60.6512 160.2ZM76.2805 124.547L74.1958 123.302L73.2656 121.532L72.9508 113.087L73.1608 110.898V106.623L74.1958 104.643L76.3856 103.608L87.23 103.923L89.315 104.853L90.9799 106.008L92.3446 107.358L93.3796 109.443L93.6947 111.318L93.9046 114.228L93.6947 117.047L92.9598 118.922L92.0299 120.587L90.6648 122.267L89 123.512L87.3351 124.037L84.1103 124.442L78.7854 124.337L76.2805 124.547Z" fill="white"/>
<path d="M144.236 160.2L159.145 159.99L161.335 159.045L162.475 156.855V146.341L161.335 144.256L159.145 143.311L156.745 143.521L154.765 143.206L149.456 143.101L146.006 143.521L143.921 143.311L141.626 143.416L139.646 143.101L137.366 143.311L135.176 142.276L134.336 140.401V133.831L135.281 131.642L137.156 130.487L140.276 130.397L143.606 130.697L147.581 130.487L151.84 130.592L153.925 130.397L156.325 130.487L158.41 129.662L159.145 127.577L159.46 118.202L158.41 115.277L156.01 113.928H149.861L147.671 114.138L143.306 113.823L137.261 114.032L135.071 113.088L134.231 109.863V106.623L135.176 104.643L137.456 103.818L139.451 103.923L141.431 103.503L156.325 103.713L158.305 103.608L160.495 102.348L161.545 100.473L161.44 98.3882L161.545 96.3035L161.335 90.0487L160.39 88.0688L158.305 87.2437H156.115L154.24 86.8239L145.796 86.929L143.516 87.1389L141.431 86.929L139.646 87.0338L137.561 86.8239L129.027 87.0338L126.942 86.7188L124.962 87.1389L123.087 86.929L121.002 87.1389L118.917 87.0338L116.727 87.8589L115.572 90.0487L115.782 94.0085L115.467 98.2834L115.782 100.578L115.572 110.793L115.887 112.982L115.677 114.962L115.572 123.512L115.887 125.387L115.782 142.276L115.572 144.256L115.887 146.341L115.572 153.526L115.782 155.82L116.622 158.64L119.742 159.99L127.257 160.095L129.537 159.885L131.412 159.99L135.686 159.675L137.666 160.095L140.066 160.2L142.151 159.99L144.236 160.2Z" fill="white"/>
<path d="M221.886 158.115L224.691 159.78L227.616 160.095L229.911 159.36L230.946 157.275L231.156 119.237L230.841 117.467V107.148L231.156 104.643L230.841 90.1536L229.806 88.0686L227.721 86.9287L214.792 87.0338L212.812 88.1737L211.672 90.3635L211.567 92.5534L211.882 94.2185L211.567 98.5982L211.777 100.893L211.567 119.552L210.937 121.322L209.377 120.587L201.982 113.192L199.058 110.897L178.524 90.1536L176.964 88.9086L174.564 87.6637L171.444 86.9287L169.044 87.9637L168.099 89.9436V121.532L167.994 123.302L168.204 127.577L167.889 129.347L168.099 146.446L167.889 148.426L168.099 157.17L169.044 159.15L171.234 159.885L175.509 160.095L177.789 159.885L181.853 160.2L184.043 160.095L186.128 159.045L187.178 155.82L187.283 129.452L187.493 127.367L188.213 125.597L189.578 126.122L190.928 127.892L198.323 134.971L199.687 136.531L201.457 137.686L217.612 153.735L220.311 156.765L221.886 158.115Z" fill="white"/>
<path d="M239.28 156.96L240.54 158.94L242.52 160.095L244.604 159.99L248.774 160.2L250.964 159.99L255.329 160.095L257.519 158.85L258.359 156.855L258.569 154.875L258.359 152.596V134.146L259.289 131.956L261.479 130.592L273.778 130.487L275.968 130.802H277.843L279.823 131.956L280.873 133.936L280.978 156.96L282.118 158.64L285.147 159.99H290.562L292.647 159.78L296.921 160.095L298.902 158.745L300.146 156.96L299.936 147.481L300.253 144.151L299.936 142.486L300.042 90.1536L299.112 87.9637L297.027 87.1387L285.043 87.0338L282.013 87.7688L280.978 90.2587L280.873 94.2185L281.083 95.9882L280.873 100.263L281.188 102.243L281.083 110.372L279.928 112.457L277.843 113.612L275.863 113.298L271.798 113.717L269.608 113.507L267.733 113.717L261.584 113.612L259.604 112.667L258.569 110.688L258.464 108.393V106.203L258.359 104.328L258.464 96.1984L258.674 93.9034L258.464 90.0485L257.519 88.0686L255.329 86.9287L253.034 87.1387L242.73 86.9287L240.435 87.9637L239.385 90.0485L239.175 92.3434L239.385 100.473L239.175 102.558L239.595 106.833L239.385 110.793L239.49 113.298L239.28 115.382V146.551L239.595 148.426L239.28 156.96Z" fill="white"/>
<path d="M362.164 160.095L366.124 159.78L368.105 159.99L371.33 159.885L374.254 159.36L374.57 156.855L373.836 154.47L372.275 150.616L369.456 145.186L368.001 141.331L365.916 137.581L361.957 128.102L360.905 126.527L359.872 124.547L359.241 122.267L358.311 120.692L357.68 119.027L355.491 115.173L354.757 112.982L347.886 98.4933L347.255 96.4083L346.117 94.5335L345.487 92.6584L343.505 89.0136L341.737 87.1389L338.287 86.0889L334.958 87.2437L333.083 89.0136L332.153 90.7836L331.416 92.8686L330.471 94.3235L326.301 103.923L325.163 105.483L324.636 107.568L323.496 109.548L322.868 111.423L312.233 133.727L311.617 136.021L310.568 137.581L309.834 139.666L307.959 142.996L306.398 147.166L305.258 148.636L304.734 150.511L302.649 154.68L302.018 156.765L302.542 159.36L304.627 159.99L308.694 159.78L310.779 159.99L316.613 159.78L319.012 159.045L320.993 157.17L322.868 153.736L324.847 151.756L327.038 150.616L329.017 150.916L333.397 150.511L335.272 150.811L345.487 150.721L347.361 150.916L349.657 150.616L351.952 151.756L353.93 153.421L354.861 155.4L355.491 157.275L357.576 158.85L359.975 159.885L362.164 160.095ZM338.497 134.146L336.412 133.727L334.028 133.937L332.346 133.202L332.242 131.222L337.147 119.972L338.287 119.027L339.756 119.867L344.646 131.327L344.243 133.202L342.667 134.041L338.497 134.146Z" fill="white"/>
<path d="M38.8481 77.7643L41.338 76.9243L43.633 73.8944L45.0127 70.9995L45.6129 68.8097L47.6078 65.4797L48.2376 63.395L49.2876 61.2051L49.8878 59.4202L51.0426 57.5302L55.1075 48.0658L55.8424 45.7559L57.7023 42.4259L66.7917 20.977L67.8267 19.0872L69.5817 15.3224L70.1216 13.3575L72.1015 9.69767L72.8215 6.89283L72.3115 4.70293L70.4217 4.28296L68.2466 4.07296L66.3568 3.77297L64.3919 3.96796L62.3071 4.07296L58.3473 3.66797L56.0524 5.0179L54.2675 6.77283L44.5779 29.7217L43.963 31.9115L43.0179 33.6665L42.598 35.5563L41.5779 37.4314L39.4932 43.2659L38.4432 45.1407L37.3034 44.9458L34.6784 39.2912L34.2735 37.3262L32.4885 33.7713L27.2688 20.2271L24.5689 14.7076L21.6441 6.77283L19.8892 5.0179L17.4743 3.96796L11.5496 3.77297L9.46468 4.07296H5.4899L3.83997 4.80793L3 6.89283L6.32984 15.7573L7.3798 17.3023L7.90477 19.2972L8.72974 21.3822L9.86967 22.927L10.6046 25.1168L19.9942 46.1907L20.6091 48.2757L23.234 53.6905L23.939 55.8803L25.7239 59.4202L26.8638 61.295L27.3739 63.395L31.5436 73.2795L32.4885 74.8393L34.5735 76.6242L36.8682 77.4642L38.8481 77.7643Z" stroke="white" stroke-width="4.55997"/>
<path d="M290.657 3L288.151 3.83997L285.858 6.86981L284.508 9.77967L283.878 11.9696L281.898 15.2993L281.268 17.3843L280.233 19.5742L279.603 21.3441L278.463 23.2339L274.398 32.7135L273.664 35.0085L271.788 38.3382L262.714 59.8023L261.679 61.6921L259.909 65.442L259.384 67.4219L257.404 71.0666L256.669 73.8866L257.194 76.0614L259.069 76.4813L261.259 76.6913L263.134 77.0063L265.114 76.7964L267.199 76.6913L271.159 77.1114L273.453 75.7614L275.223 73.9914L284.913 51.0576L285.543 48.8678L286.487 47.0978L286.893 45.2231L287.941 43.348L290.026 37.4984L291.063 35.6233L292.218 35.8333L294.827 41.4732L295.233 43.4531L297.019 46.9927L302.222 60.5373L304.938 66.0568L307.847 73.9914L309.618 75.7614L312.017 76.7964L317.955 77.0063L320.04 76.6913H324L325.665 75.9713L326.505 73.8866L323.176 65.0221L322.125 63.4621L321.601 61.4822L320.777 59.3971L319.62 57.8224L318.9 55.6473L309.511 34.5883L308.898 32.5036L306.286 27.0889L305.552 24.899L303.78 21.3441L302.643 19.4691L302.116 17.3843L297.946 7.48477L297.019 5.92487L294.934 4.15494L292.638 3.315L290.657 3Z" fill="white"/>
</svg>
